# AST/ASF file generated using VICON BodyLanguage
# -----------------------------------------------
:version 1.10
:name VICON
:units
  mass 1.0
  length 0.45
  angle deg
:documentation
   .ast/.asf automatically generated from VICON data using
   VICON BodyBuilder and BodyLanguage model FoxedUp or BRILLIANT.MOD
:root
   order TX TY TZ RX RY RZ
   axis XYZ
   position 0 0 0  
   orientation 0 0 0 
:bonedata
  begin
     id 1 
     name lhipjoint
     direction 0.576517 -0.752066 0.319413 
     length 2.45433 
     axis 0 0 0  XYZ
  end
  begin
     id 2 
     name lfemur
     direction 0.34202 -0.939693 0  
     length 7.54459  
     axis 0 0 20  XYZ
    dof rx ry rz
    limits (-160.0 20.0)
           (-70.0 70.0)
           (-60.0 70.0)
  end
  begin
     id 3 
     name ltibia
     direction 0.34202 -0.939693 0   
     length 7.73986   
     axis 0 0 20   XYZ
    dof rx
    limits (-10.0 170.0)
  end
  begin
     id 4 
     name lfoot
     direction 0.090693 -0.249177 0.964202   
     length 2.28437   
     axis -90 7.62852e-016 20   XYZ
    dof rx rz
    limits (-45.0 90.0)
           (-70.0 20.0)
  end
  begin
     id 5 
     name ltoes
     direction 1.5356e-011 -4.21928e-011 1   
     length 1.14243   
     axis -90 7.62852e-016 20   XYZ
    dof rx
    limits (-90.0 20.0)
  end
  begin
     id 6 
     name rhipjoint
     direction -0.573937 -0.753736 0.320122   
     length 2.44889  
     axis 0 0 0  XYZ 
  end
  begin
     id 7 
     name rfemur
     direction -0.34202 -0.939693 0   
     length 7.50166   
     axis 0 0 -20   XYZ
    dof rx ry rz
    limits (-160.0 20.0)
           (-70.0 70.0)
           (-70.0 60.0)
  end
  begin
     id 8 
     name rtibia
     direction -0.34202 -0.939693 0   
     length 7.54266   
     axis 0 0 -20   XYZ
    dof rx
    limits (-10.0 170.0)
 end
 begin
     id 9 
     name rfoot
     direction -0.114017 -0.31326 0.942798   
     length 2.34212  
     axis -90 -7.62852e-016 -20   XYZ
    dof rx rz
    limits (-45.0 90.0)
           (-20.0 70.0)
  end
  begin
     id 10 
     name rtoes
     direction -1.53557e-011 -4.21867e-011 1   
     length 1.16246   
     axis -90 -7.62852e-016 -20   XYZ
    dof rx
    limits (-90.0 20.0)
  end
  begin
     id 11 
     name lowerback
     direction -0.0228371 0.999155 -0.034167   
     length 2.0537   
     axis 0 0 0   XYZ
    dof rx ry rz
    limits (-20.0 45.0)
           (-30.0 30.0)
           (-30.0 30.0)
  end
  begin
     id 12 
     name upperback
     direction 0.0198981 0.999794 0.00389455   
     length 2.05302   
     axis 0 0 0   XYZ
    dof rx ry rz
    limits (-20.0 45.0)
           (-30.0 30.0)
           (-30.0 30.0)
  end
  begin
     id 13 
     name thorax
     direction 0.0304566 0.99935 0.0192987   
     length 2.05315   
     axis 0 0 0   XYZ
    dof rx ry rz
    limits (-20.0 45.0)
           (-30.0 30.0)
           (-30.0 30.0)
  end
  begin
     id 14 
     name lowerneck
     direction -0.0196762 0.99417 0.106017   
     length 1.82056   
     axis 0 0 0   XYZ
    dof rx ry rz
    limits (-20.0 45.0)
           (-30.0 30.0)
           (-30.0 30.0)
  end
  begin
     id 15 
     name upperneck
     direction 0.00517787 0.9802 -0.197944   
     length 1.83835   
     axis 0 0 0   XYZ
    dof rx ry rz
    limits (-20.0 45.0)
           (-30.0 30.0)
           (-30.0 30.0)
  end
  begin
     id 16
     name head
     direction 0.00211419 0.996945 -0.078081  
     length 1.85629  
     axis 0 0 0   XYZ
    dof rx ry rz
    limits (-20.0 45.0)
           (-30.0 30.0)
           (-30.0 30.0)
  end
  begin
     id 17 
     name lclavicle
     direction 0.930001 0.365811 -0.0357824  
     length 3.81961  
     axis 0 0 0   XYZ
    dof ry rz
    limits (-20.0 10.0)
           (0.0 20.0)
  end
  begin
     id 18 
     name lhumerus
     direction 1 -4.48968e-011 -3.06644e-027   
     length 5.14507   
     axis 180 -30 -90   XYZ
    dof rx ry rz
    limits (-60.0 90.0)
           (-90.0 90.0)
           (-90.0 90.0)
  end
  begin
     id 19
     name lradius
     direction 1 -4.48965e-011 9.06925e-028   
     length 3.50646   
     axis 180 -30 -90   XYZ
    dof rx
    limits (-10.0 170.0)
  end
  begin
     id 20
     name lwrist
     direction 1 -4.48957e-011 1.03922e-027   
     length 1.75323   
     axis -2.56395e-016 90 90   XYZ
    dof ry
    limits (-180.0 0.0)
 end
  begin
     id 21 
     name lhand
     direction 1 -4.48967e-011 2.08017e-027   
     length 0.629969   
     axis -1.32723e-015 90 90   XYZ
    dof rx rz
    limits (-90.0 90.0)
           (-45.0 45.0)
  end
  begin
     id 22 
     name lfingers
     direction 1 -4.49089e-011 4.20095e-027   
     length 0.507897   
     axis -2.6545e-015 90 90   XYZ
    dof rx
    limits (0.0 90.0)
  end
  begin
     id 23
     name lthumb
     direction 0.707107 -6.35001e-011 0.707107   
     length 0.729241   
     axis -90 45 5.05613e-014   XYZ
    dof rx rz
    limits (-45.0 45.0)
           (-45.0 45.0)
  end
  begin
     id 24 
     name rclavicle
     direction -0.881882 0.464123 -0.0829113   
     length 3.47515  
     axis 0 0 0   XYZ 
    dof ry rz
    limits (-10.0 20.0)
           (-20.0 0.0)
  end
  begin
     id 25 
     name rhumerus
     direction -1 -4.48961e-011 -1.55672e-027  
     length 5.232   
     axis 180 30 90   XYZ
    dof rx ry rz
    limits (-90.0 60.0)
           (-90.0 90.0)
           (-90.0 90.0)
  end
  begin
     id 26 
     name rradius
     direction -1 -4.48963e-011 6.18178e-029   
     length 3.65641   
     axis 180 30 90   XYZ
    dof rx
    limits (-10.0 170.0)
  end
  begin
     id 27 
     name rwrist
     direction -1 -4.48982e-011 1.04136e-027   
     length 1.8282   
     axis -2.56395e-016 -90 -90   XYZ
    dof ry
    limits (-180.0 0.0)
  end
  begin
     id 28
     name rhand
     direction -1 -4.48929e-011 2.07378e-027   
     length 0.656807   
     axis -1.32723e-015 -90 -90   XYZ
    dof rx rz
    limits (-90.0 90.0)
           (-45.0 45.0)
  end
  begin
     id 29
     name rfingers
     direction -1 -4.489e-011 4.13816e-027   
     length 0.529535   
     axis -2.6545e-015 -90 -90   XYZ
    dof rx
    limits (0.0 90.0)
  end
  begin
     id 30
     name rthumb
     direction -0.707107 -6.34843e-011 0.707107   
     length 0.760309   
     axis -90 -45 -5.05613e-014   XYZ
    dof rx rz
    limits (-45.0 45.0)
           (-45.0 45.0)
  end
:hierarchy
  begin
    root lhipjoint rhipjoint lowerback
    lhipjoint lfemur
    lfemur ltibia
    ltibia lfoot
    lfoot ltoes
    rhipjoint rfemur
    rfemur rtibia
    rtibia rfoot
    rfoot rtoes
    lowerback upperback
    upperback thorax
    thorax lowerneck lclavicle rclavicle
    lowerneck upperneck
    upperneck head
    lclavicle lhumerus
    lhumerus lradius
    lradius lwrist
    lwrist lhand lthumb
    lhand lfingers
    rclavicle rhumerus
    rhumerus rradius
    rradius rwrist
    rwrist rhand rthumb
    rhand rfingers
  end

#!OML:ASF H:\ManfredETheater\Project 1\Capture day 1\Session 1\subject.ASF
:FULLY-SPECIFIED
:DEGREES
1
root 0.204905 15.6261 -44.7087 11.6147 -3.5581 11.2181
lowerback 10.0462 -4.57414 -7.20465
upperback -3.69001 -6.9904 1.71169
thorax -8.51552 -2.95017 7.02175
lowerneck -9.55559 17.0452 8.54449
upperneck 0.644037 45.5804 -1.12419
head 28.921 -45.4735 158.332
rclavicle -7.77248e-014 -6.36111e-015
rhumerus -72.8634 4.26223 -63.3125
rradius 45.408
rwrist 3.5909
rhand -17.174 -2.57918
rfingers 7.12502
rthumb 9.06749 -32.3643
lclavicle -7.77248e-014 -6.36111e-015
lhumerus -33.8789 -18.092 99.0476
lradius 96.2112
lwrist -4.74016
lhand -22.5148 -16.5837
lfingers 7.12502
lthumb 3.91161 13.3601
rfemur -68.9298 -16.1921 29.5449
rtibia 51.0642
rfoot 0.688085 -17.1036
rtoes 21.3116
lfemur 6.44267 -0.828023 -34.9107
ltibia 54.8137
lfoot 14.4929 -10.4446
ltoes -1.64795
2
root 0.229331 15.5887 -44.377 10.2754 -4.65413 9.98832
lowerback 11.7325 -4.03213 -6.19387
upperback -3.411 -6.19143 2.00363
thorax -9.38774 -2.55768 6.82653
lowerneck -9.57285 16.9615 8.28688
upperneck 0.757546 45.5601 -1.0924
head 29.0423 -45.4764 158.024
rclavicle -4.13472e-014 1.27222e-014
rhumerus -71.3343 2.77055 -61.7966
rradius 43.4599
rwrist 3.50055
rhand -17.5692 -3.57882
rfingers 7.12502
rthumb 8.68613 -33.3801
lclavicle -4.13472e-014 1.27222e-014
lhumerus -33.8184 -17.0204 99.3935
lradius 93.5979
lwrist -5.46968
lhand -22.4262 -16.2063
lfingers 7.12502
lthumb 3.99722 13.7359
rfemur -67.7304 -14.7345 29.4179
rtibia 54.1046
rfoot -1.50379 -17.7414
rtoes 19.0487
lfemur 4.91687 1.15752 -33.3428
ltibia 60.1066
lfoot 11.8726 -9.47421
ltoes -4.59072
3
root 0.263519 15.5328 -44.0547 8.98058 -6.26491 7.88762
lowerback 13.1777 -3.44202 -4.2545
upperback -2.84441 -5.10126 2.3529
thorax -9.89543 -2.11378 6.03005
lowerneck -9.76403 16.9609 8.1976
upperneck 0.741423 45.412 -1.09626
head 29.2119 -45.7497 157.661
rclavicle 5.84427e-014 -9.54166e-015
rhumerus -69.2821 0.787012 -60.3544
rradius 41.3649
rwrist 3.74641
rhand -17.2625 -3.69495
rfingers 7.12502
rthumb 8.98206 -33.4837
lclavicle 5.84427e-014 -9.54166e-015
lhumerus -33.3535 -15.8998 99.2779
lradius 90.8004
lwrist -6.19523
lhand -22.5771 -15.9655
lfingers 7.12502
lthumb 3.85144 13.9795
rfemur -66.0093 -12.7991 30.3598
rtibia 56.6241
rfoot -3.13194 -18.8008
rtoes 17.3632
lfemur 3.27092 3.62643 -30.8518
ltibia 65.4132
lfoot 9.55244 -9.01808
ltoes -4.63056
4
root 0.290428 15.4911 -43.7399 7.80017 -7.90587 5.42736
lowerback 14.7789 -2.94443 -2.19668
upperback -2.34246 -4.03751 2.93405
thorax -10.4996 -1.6841 5.38981
lowerneck -9.75914 16.9837 8.06734
upperneck 0.812521 45.3851 -1.06433
head 29.3842 -45.9348 157.318
rclavicle -4.4329e-014 1.43125e-014
rhumerus -67.0898 -1.09994 -58.802
rradius 39.0406
rwrist 4.83925
rhand -17.2534 -3.40817
rfingers 7.12502
rthumb 8.99079 -33.1966
lclavicle -4.4329e-014 1.43125e-014
lhumerus -32.9339 -14.6031 99.1852
lradius 87.8729
lwrist -6.72923
lhand -23.1102 -15.4614
lfingers 7.12502
lthumb 3.33666 14.4922
rfemur -63.9589 -10.7632 31.6329
rtibia 58.9319
rfoot -5.06089 -19.2203
rtoes 16.1385
lfemur 1.57604 6.0518 -27.6944
ltibia 70.4239
lfoot 8.16008 -8.94832
ltoes 0.285154
5
root 0.28649 15.5288 -43.3979 6.8713 -8.73665 4.53034
lowerback 15.4299 -2.8405 -1.75969
upperback -1.91549 -3.79525 3.17582
thorax -10.4377 -1.59235 5.37806
lowerneck -9.44863 17.1335 8.19176
upperneck 0.896621 45.5043 -0.993287
head 29.5589 -46.1958 157.148
rclavicle 1.03964e-013 -5.08889e-014
rhumerus -64.446 -2.31376 -58.419
rradius 37.0898
rwrist 6.77414
rhand -17.6553 -5.32041
rfingers 7.12502
rthumb 8.60303 -35.1251
lclavicle 1.03964e-013 -5.08889e-014
lhumerus -32.8148 -12.9327 98.877
lradius 84.9855
lwrist -5.95214
lhand -24.4319 -15.3913
lfingers 7.12502
lthumb 2.06026 14.5785
rfemur -61.9584 -10.5428 31.9618
rtibia 60.7012
rfoot -7.21969 -18.8889
rtoes 13.5273
lfemur -0.757985 6.86102 -26.2582
ltibia 74.9316
lfoot 6.84016 -8.8436
ltoes 0.813427
6
root 0.297449 15.4834 -43.0796 6.13819 -9.79995 3.20392
lowerback 16.2647 -2.63681 -0.798219
upperback -1.5508 -3.30218 3.4931
thorax -10.5981 -1.40007 5.1061
lowerneck -9.27237 17.2332 8.25296
upperneck 0.96553 45.5461 -0.932438
head 29.7115 -46.396 156.939
rclavicle 4.11484e-014 3.18055e-014
rhumerus -62.2115 -3.99356 -57.5807
rradius 35.2585
rwrist 8.33723
rhand -17.8487 -6.25285
rfingers 7.12502
rthumb 8.41638 -36.0652
lclavicle 4.11484e-014 3.18055e-014
lhumerus -32.6206 -11.5653 98.6033
lradius 82.2636
lwrist -5.3803
lhand -25.181 -15.193
lfingers 7.12502
lthumb 1.3368 14.7826
rfemur -60.4839 -9.64169 32.6937
rtibia 62.5172
rfoot -8.91085 -19.1506
rtoes 11.6309
lfemur -2.99816 8.15954 -24.2184
ltibia 79.5144
lfoot 5.17474 -8.4423
ltoes 1.43023
7
root 0.304132 15.4401 -42.7657 5.59291 -10.7034 2.1005
lowerback 16.8332 -2.51835 -0.074034
upperback -1.23833 -2.9678 3.75847
thorax -10.6294 -1.27547 4.92673
lowerneck -9.02431 17.3668 8.38852
upperneck 1.04097 45.6133 -0.853288
head 29.855 -46.5881 156.773
rclavicle -2.44505e-014 3.02153e-014
rhumerus -59.9885 -5.58218 -57.0424
rradius 33.6953
rwrist 10.0644
rhand -18.0586 -7.21873
rfingers 7.12502
rthumb 8.21381 -37.0391
lclavicle -2.44505e-014 3.02153e-014
lhumerus -32.4969 -10.2604 98.233
lradius 79.6663
lwrist -4.31101
lhand -25.9938 -15.07
lfingers 7.12502
lthumb 0.551699 14.909
rfemur -59.168 -9.00441 33.3283
rtibia 64.1463
rfoot -10.5277 -19.3788
rtoes 9.78279
lfemur -5.58584 9.1163 -22.4047
ltibia 83.873
lfoot 3.5791 -7.94831
ltoes 1.97299
8
root 0.307233 15.4 -42.4565 5.20487 -11.4299 1.24273
lowerback 17.1679 -2.46929 0.397649
upperback -0.988941 -2.78304 3.96838
thorax -10.5706 -1.21115 4.852
lowerneck -8.71085 17.5222 8.58205
upperneck 1.12608 45.699 -0.756226
head 29.9837 -46.7603 156.651
rclavicle 7.31528e-014 -1.74931e-014
rhumerus -57.8538 -6.96329 -56.8805
rradius 32.5207
rwrist 11.7407
rhand -18.314 -8.18991
rfingers 7.12502
rthumb 7.96727 -38.0198
lclavicle 7.31528e-014 -1.74931e-014
lhumerus -32.4762 -9.07942 97.7996
lradius 77.2645
lwrist -2.81285
lhand -26.7834 -15.0434
lfingers 7.12502
lthumb -0.210902 14.9362
rfemur -58.073 -8.6328 33.8104
rtibia 65.7682
rfoot -12.1831 -19.5714
rtoes 7.90569
lfemur -8.53122 9.7231 -20.8733
ltibia 88.0568
lfoot 1.95373 -7.32159
ltoes 2.33703
9
root 0.308627 15.3631 -42.152 4.93238 -12.0157 0.591855
lowerback 17.3189 -2.46374 0.673219
upperback -0.793239 -2.70538 4.12295
thorax -10.4502 -1.18937 4.8449
lowerneck -8.35734 17.6877 8.8203
upperneck 1.21621 45.7883 -0.645376
head 30.0955 -46.911 156.565
rclavicle -9.02482e-014 3.81667e-014
rhumerus -55.864 -8.02337 -57.1729
rradius 31.8423
rwrist 13.106
rhand -18.6121 -9.11862
rfingers 7.12502
rthumb 7.67961 -38.9592
lclavicle -9.02482e-014 3.81667e-014
lhumerus -32.5699 -8.07759 97.3238
lradius 75.1136
lwrist -1.09161
lhand -27.4571 -15.1382
lfingers 7.12502
lthumb -0.861556 14.8398
rfemur -57.1168 -8.48005 34.1455
rtibia 67.2513
rfoot -13.758 -19.7394
rtoes 6.00148
lfemur -11.7733 10.0292 -19.5972
ltibia 91.9285
lfoot 0.365008 -6.56231
ltoes 2.42888
10
root 0.310366 15.3297 -41.8531 4.74462 -12.5139 0.0502299
lowerback 17.3627 -2.47771 0.85897
upperback -0.64132 -2.67829 4.24244
thorax -10.3111 -1.18772 4.85824
lowerneck -7.99061 17.8492 9.08164
upperneck 1.3048 45.8649 -0.528405
head 30.185 -47.0431 156.512
rclavicle -2.94201e-014 2.54444e-014
rhumerus -54.0604 -8.64738 -57.9552
rradius 31.7274
rwrist 13.9336
rhand -18.9667 -9.90841
rfingers 7.12502
rthumb 7.33733 -39.7612
lclavicle -2.94201e-014 2.54444e-014
lhumerus -32.7779 -7.29958 96.8295
lradius 73.2433
lwrist 0.543383
lhand -27.9705 -15.3554
lfingers 7.12502
lthumb -1.35746 14.62
rfemur -56.2473 -8.48579 34.4058
rtibia 68.6127
rfoot -15.2519 -19.872
rtoes 4.1134
lfemur -15.2544 10.1086 -18.4554
ltibia 95.439
lfoot -1.1755 -5.71595
ltoes 2.32611
11
root 0.313944 15.3 -41.5581 4.58743 -12.9743 -0.439809
lowerback 17.3654 -2.49076 1.01912
upperback -0.515679 -2.65837 4.34141
thorax -10.1771 -1.18824 4.86399
lowerneck -7.62831 17.9972 9.34223
upperneck 1.39423 45.9327 -0.409547
head 30.2567 -47.1452 156.48
rclavicle -4.11484e-014 7.95139e-014
rhumerus -52.4804 -8.73218 -59.2161
rradius 32.2182
rwrist 14.0777
rhand -19.4009 -10.5439
rfingers 7.12502
rthumb 6.91812 -40.4109
lclavicle -4.11484e-014 7.95139e-014
lhumerus -33.1104 -6.74072 96.3507
lradius 71.6744
lwrist 1.75939
lhand -28.3162 -15.6632
lfingers 7.12502
lthumb -1.69133 14.3099
rfemur -55.3734 -8.59963 34.6101
rtibia 69.8629
rfoot -16.6903 -19.9373
rtoes 2.23846
lfemur -18.8455 10.0212 -17.3593
ltibia 98.5228
lfoot -2.59208 -4.87506
ltoes 2.27527
